<?xml version="1.0" encoding="UTF-8"?>
<svg width="70px" height="67px" viewBox="0 0 70 67" version="1.1" xmlns="http://www.w3.org/2000/svg" xmlns:xlink="http://www.w3.org/1999/xlink">
    <title>Shape</title>
    <g id="Page-2" stroke="none" stroke-width="1" fill="none" fill-rule="evenodd">
        <path d="M35,0.75 L34.09375,2.5625 L24.34375,22.09375 L1.84375,26 L-0.0625,26.34375 L1.28125,27.71875 L16.90625,43.34375 L13.59375,64.84375 L13.3125,66.75 L15.03125,65.90625 L35,56.125 L54.96875,65.90625 L56.6875,66.75 L56.40625,64.84375 L53.09375,43.34375 L68.71875,27.71875 L70.0625,26.34375 L68.15625,26 L45.65625,22.09375 L35.90625,2.5625 L35,0.75 Z M35,5.25 L44.09375,23.4375 L44.34375,23.90625 L44.84375,24 L65.90625,27.65625 L51.28125,42.28125 L50.9375,42.65625 L51,43.15625 L54.125,63.25 L35.4375,54.09375 L35,53.875 L34.5625,54.09375 L15.875,63.25 L19,43.15625 L19.0625,42.65625 L18.71875,42.28125 L4.09375,27.65625 L25.15625,24 L25.65625,23.90625 L25.90625,23.4375 L35,5.25 Z" id="Shape" fill="#000000" fill-rule="nonzero"></path>
    </g>
</svg>