<?xml version="1.0" standalone="no"?>
  <!DOCTYPE svg PUBLIC "-//W3C//DTD SVG 1.1//EN" 
    "http://www.w3.org/Graphics/SVG/1.1/DTD/svg11.dtd">
  <svg width="21.59cm" height="27.94cm"
       xmlns="http://www.w3.org/2000/svg" version="1.1" viewBox="0 0 764.99998 989.99998">
   <g>
     <path d="M 382.49999 494.99999 L 384.55374 496.87223 L 383.01283 500.53441 L 377.47571 501.65321 L 371.57301 497.04259 L 370.68595 487.68504 L 377.93683 478.96214 L 391.17114 477.58597 L 403.23119 486.96868 L 405.82259 504.03521 L 394.88735 519.87715 L 374.13419 524.40272 L 354.14629 512.55585 L 346.98730 488.36152 L 359.05334 463.95161 L 386.34629 453.49185 L 415.36004 465.04409 L 429.74408 494.99999 L 419.46755 528.70037 L 387.37197 547.57696 L 349.00478 539.35481 L 325.13334 505.72367 L 330.51821 462.81423 L 365.00787 433.52156 L 412.22964 435.29480 L 447.28500 469.90214 L 449.87640 521.10175 L 415.94585 562.16833 L 361.20523 569.84330 L 313.97856 537.42666 L 300.54763 479.68044 L 330.58242 426.25001 L 390.70542 406.44929 L 450.27385 433.21595 L 476.98818 494.99999 L 454.38136 560.52851 L 391.73110 594.61952 L 320.53386 577.05641 L 278.69366 514.40475 L 290.35047 437.94342 L 352.07891 388.08098 L 433.28815 393.00362 L 491.33880 452.83561 L 493.93020 538.16828 L 437.00436 604.45951 L 348.27627 615.28388 L 273.81082 562.29747 L 254.10795 470.99936 L 302.11149 388.54841 L 395.06456 359.40673 L 485.18766 401.38781 L 524.23227 494.99999 L 489.29516 592.35665 L 396.09024 641.66208 L 292.06293 614.75801 L 232.25399 523.08583 L 250.18274 413.07261 L 339.14995 342.64039 L 454.34665 350.71244 L 535.39261 435.76907 L 537.98401 555.23482 L 458.06286 646.75069 L 335.34731 660.72446 L 233.64308 587.16828 L 207.66828 462.31828 L 273.64056 350.84681 L 399.42369 312.36417 L 520.10146 369.55967 L 571.47636 494.99999 L 524.20897 624.18479 L 400.44937 688.70464 L 263.59200 652.45961 L 185.81432 531.76691 L 210.01500 388.20180 L 326.22099 297.19981 L 475.40516 308.42126 L 579.44641 418.70254 L 582.03781 572.30135 L 479.12136 689.04186 L 322.41835 706.16504 L 193.47534 612.03909 L 161.22861 453.63720 L 245.16964 313.14521 L 403.78283 265.32161 L 555.01527 337.73153 L 618.72046 494.99999 L 559.12278 656.01293 L 404.80850 735.74720 L 235.12107 690.16121 L 139.37464 540.44799 L 169.84726 363.33099 L 313.29203 251.75923 L 496.46366 266.13008 L 623.50022 401.63600 L 626.09162 589.36789 L 500.17987 731.33304 L 309.48939 751.60562 L 153.30760 636.90991 L 114.78894 444.95612 L 216.69871 275.44361 L 408.14196 218.27906 L 589.92907 305.90339 L 665.96455 494.99999 L 594.03658 687.84107 L 409.16764 782.78976 L 206.65015 727.86281 L 92.93497 549.12907 L 129.67952 338.46018 L 300.36307 206.31865 L 517.52217 223.83890 L 667.55402 384.56947 L 670.14542 606.43442 L 521.23837 773.62422 L 296.56043 797.04620 L 113.13987 661.78072 L 68.34926 436.27504 L 188.22778 237.74201 L 412.50110 171.23650 L 624.84288 274.07525 L 711.85038 491.60416 M 711.85038 498.62172 L 628.95039 719.66921 L 413.52677 829.83232 L 178.17922 765.56441 L 53.14961 568.30847 M 53.14961 520.03115 L 89.51179 313.58937 L 287.43411 160.87807 L 538.58067 181.54773 L 711.60783 367.50293 L 711.85038 391.46365 M 711.85038 626.13008 L 542.29688 815.91540 L 283.63147 842.48678 L 72.97213 686.65153 L 53.14961 586.08514 M 53.14961 376.02401 L 159.75686 200.04041 L 416.86023 124.19394 L 659.75669 242.24711 L 711.85038 373.00527 M 711.85038 624.06682 L 663.86419 751.49735 L 417.88591 876.87487 L 149.70829 803.26601 L 53.14961 650.49451 M 53.14961 285.78985 L 274.50515 115.43749 L 559.63918 139.25655 L 711.85038 303.23745 M 711.85038 692.38460 L 563.35538 858.20658 L 270.70251 887.92736 L 53.14961 726.60862 M 53.14961 291.00180 L 131.28593 162.33881 L 421.21937 77.15138 L 694.67049 210.41897 L 711.85038 253.67498 M 711.85038 748.72083 L 698.77800 783.32549 L 422.24504 923.91743 L 121.23737 840.96761 L 53.14961 733.00165 M 53.14961 230.07491 L 261.57619 69.99691 L 580.69768 96.96537 L 711.85038 238.52963 M 711.85038 758.45690 L 584.41389 900.49775 L 257.77355 933.36794 L 53.14961 781.34927 M 53.14961 206.25638 L 102.81500 124.63721 L 346.90665 53.14961 M 472.75278 53.14961 L 711.85038 169.92926 M 711.85038 826.23527 L 493.83277 936.85037 M 303.22155 936.85037 L 92.76644 878.66922 L 53.14961 815.73662 M 53.14961 174.45950 L 211.35704 53.14961 M 583.88156 53.14961 L 601.75618 54.67419 L 711.85038 173.69194 M 711.85038 824.39918 L 610.80843 936.85037 M 188.45365 936.85037 L 53.14961 836.17626 M 53.14961 121.70994 L 74.34407 86.93561 L 190.00943 53.14961 M 573.17299 53.14961 L 711.85038 121.00279 M 711.85038 875.72913 L 591.18015 936.85037 M 138.18182 936.85037 L 64.29551 916.37082 L 53.14961 898.63909 M 53.14961 118.91710 L 139.03636 53.14961 M 660.47669 53.14961 L 711.85038 108.75818 M 711.85038 890.24542 L 669.92152 936.85037 M 114.60267 936.85037 L 53.14961 891.06753 M 673.32330 53.14961 L 711.85038 72.02834 M 711.85038 925.17640 L 688.77032 936.85037 M 53.14961 63.42987 L 66.58990 53.14961" fill="none" stroke="black" stroke-width="0.03cm" />
   </g>
</svg>