<?xml version="1.0" encoding="UTF-8"?>
<svg width="139px" height="17px" viewBox="0 0 139 17" version="1.1"
  xmlns="http://www.w3.org/2000/svg"
  xmlns:xlink="http://www.w3.org/1999/xlink">
  <title>Typesomething</title>
  <g id="Page-1" stroke="none" stroke-width="1" fill="none" fill-rule="evenodd">
    <path d="M3.67,15.908 C3.814,15.908 4.006,15.872 4.246,15.8 C4.57,15.704 4.732,15.578 4.732,15.422 L4.732,15.422 L4.786,13.226 C4.786,12.662 5.086,11.174 5.686,8.762 C5.998,7.586 6.304,6.41 6.604,5.234 C6.628,5.138 6.7,4.904 6.82,4.532 C6.916,4.232 6.97,3.986 6.982,3.794 C9.406,3.134 11.632,2.684 13.66,2.444 C14.092,2.396 14.56,2.282 15.064,2.102 C15.88,1.826 16.288,1.502 16.288,1.13 C16.288,0.77 15.97,0.536 15.334,0.428 C14.614,0.356 13.888,0.278 13.156,0.194 L13.156,0.194 L2.41,1.814 C2.326,1.802 2.182,1.784 1.978,1.76 C1.774,1.736 1.642,1.724 1.582,1.724 C1.126,1.724 0.808,1.778 0.628,1.886 C0.364,2.054 0.232,2.396 0.232,2.912 C0.232,3.824 0.484,4.22 0.988,4.1 L0.988,4.1 L4.102,3.938 C4.294,4.034 4.39,4.202 4.39,4.442 C4.39,4.898 4.276,5.834 4.048,7.25 C3.844,8.582 3.694,9.386 3.598,9.662 C3.442,10.142 3.262,10.862 3.058,11.822 C2.806,12.974 2.68,13.802 2.68,14.306 C2.68,15.374 3.01,15.908 3.67,15.908 Z M11.914,14.288 C12.262,14.288 12.496,14.162 12.616,13.91 C12.652,11.606 12.718,10.328 12.814,10.076 C12.982,9.656 13.522,9.074 14.434,8.33 C15.646,7.334 16.426,6.65 16.774,6.278 C17.578,5.402 18.01,4.532 18.07,3.668 C17.854,3.428 17.596,3.308 17.296,3.308 C16.792,3.308 16.234,3.596 15.622,4.172 C15.358,4.424 14.818,5.03 14.002,5.99 C13.342,6.782 12.808,7.316 12.4,7.592 L12.4,7.592 L12.454,3.668 C12.382,3.356 12.319,3.155 12.265,3.065 C12.211,2.975 12.052,2.792 11.788,2.516 L11.788,2.516 L11.05,2.606 C10.738,2.978 10.582,3.752 10.582,4.928 C10.582,5.36 10.606,5.924 10.654,6.62 C10.702,7.316 10.726,7.742 10.726,7.898 C10.726,7.886 10.804,8.066 10.96,8.438 C11.116,8.81 11.2,9.14 11.212,9.428 C11.224,10.484 11.23,11.534 11.23,12.578 C11.29,13.718 11.518,14.288 11.914,14.288 Z M17.638,16.178 C17.758,16.178 17.866,16.07 17.962,15.854 C18.034,15.686 18.07,15.554 18.07,15.458 L18.07,15.458 L18.07,13.91 C18.07,13.49 18.226,12.686 18.538,11.498 C18.814,10.478 18.988,9.878 19.06,9.698 C19.372,9.626 19.72,9.59 20.104,9.59 C20.368,9.59 20.83,9.62 21.49,9.68 C22.078,9.728 22.534,9.746 22.858,9.734 C23.926,9.686 24.853,9.374 25.639,8.798 C26.425,8.222 26.818,7.544 26.818,6.764 C26.818,6.02 26.38,5.408 25.504,4.928 C24.748,4.532 24.058,4.376 23.434,4.46 C22.426,4.604 21.184,4.988 19.708,5.612 C19.588,5.432 19.468,5.255 19.348,5.081 C19.228,4.907 19.078,4.82 18.898,4.82 C18.826,4.82 18.772,4.826 18.736,4.838 C18.472,5.066 18.274,5.228 18.142,5.324 C18.034,5.528 17.95,5.798 17.89,6.134 C17.842,6.398 17.8,6.662 17.764,6.926 C17.536,8.162 17.368,9.074 17.26,9.662 C16.684,12.962 16.396,14.75 16.396,15.026 C16.396,15.302 16.51,15.554 16.738,15.782 C16.99,16.046 17.29,16.178 17.638,16.178 Z M20.644,8.042 C20.284,8.042 20.104,7.928 20.104,7.7 C20.104,7.532 20.302,7.316 20.698,7.052 C20.986,6.86 21.238,6.728 21.454,6.656 C21.538,6.62 21.85,6.464 22.39,6.188 C22.81,5.972 23.11,5.864 23.29,5.864 C24.322,5.864 24.838,6.128 24.838,6.656 C24.838,6.944 24.718,7.169 24.478,7.331 C24.238,7.493 23.764,7.652 23.056,7.808 C22.3,7.964 21.496,8.042 20.644,8.042 Z M28.654,14.324 C29.746,14.324 31.102,13.976 32.722,13.28 C34.426,12.548 35.476,11.81 35.872,11.066 C35.632,10.646 35.374,10.376 35.098,10.256 C34.942,10.196 34.69,10.166 34.342,10.166 C34.234,10.166 33.601,10.304 32.443,10.58 C31.285,10.856 30.646,10.994 30.526,10.994 C30.454,10.994 30.265,11.012 29.959,11.048 C29.653,11.084 29.428,11.102 29.284,11.102 C29.128,11.102 29.02,11.084 28.96,11.048 C28.888,10.052 29.218,9.368 29.95,8.996 C30.43,8.732 31.468,8.504 33.064,8.312 C35.104,8.06 36.712,7.784 37.888,7.484 C38.044,7.364 38.122,7.244 38.122,7.124 C38.122,6.92 37.939,6.749 37.573,6.611 C37.207,6.473 36.85,6.404 36.502,6.404 C36.058,6.404 35.008,6.458 33.352,6.566 C31.768,6.674 30.688,6.722 30.112,6.71 L30.112,6.71 L30.112,6.224 C30.112,5.504 30.538,5.018 31.39,4.766 C31.942,4.61 32.74,4.55 33.784,4.586 C34.684,4.622 35.146,4.622 35.17,4.586 L35.17,4.586 L35.332,3.992 C34.9,3.476 34.42,3.134 33.892,2.966 C33.532,2.858 32.992,2.804 32.272,2.804 C30.688,2.804 29.743,2.942 29.437,3.218 C29.131,3.494 28.564,4.82 27.736,7.196 C26.872,9.704 26.44,11.432 26.44,12.38 C26.44,13.1 26.638,13.616 27.034,13.928 C27.37,14.192 27.91,14.324 28.654,14.324 Z M48.076,15.026 C49.012,15.026 50.194,14.792 51.622,14.324 C53.662,13.664 54.682,12.788 54.682,11.696 C54.682,10.628 54.172,9.776 53.152,9.14 C52.408,8.684 51.352,8.33 49.984,8.078 C49.06,7.922 48.142,7.772 47.23,7.628 C47.314,6.956 47.83,6.524 48.778,6.332 C49.618,6.212 50.464,6.098 51.316,5.99 C52.204,5.774 52.648,5.306 52.648,4.586 C52.648,3.866 52.138,3.506 51.118,3.506 C50.65,3.506 49.906,3.752 48.886,4.244 C47.794,4.772 46.864,5.366 46.096,6.026 C45.196,6.806 44.746,7.508 44.746,8.132 C44.746,9.116 45.268,9.716 46.312,9.932 C47.416,10.004 48.52,10.07 49.624,10.13 C51.028,10.25 52.006,10.652 52.558,11.336 L52.558,11.336 L52.558,11.624 C52.318,12.056 51.85,12.272 51.154,12.272 C50.998,12.272 50.815,12.26 50.605,12.236 C50.395,12.212 50.278,12.2 50.254,12.2 L50.254,12.2 L46.51,12.2 C46.234,12.272 46.006,12.536 45.826,12.992 C45.706,13.34 45.646,13.628 45.646,13.856 L45.646,13.856 L45.646,14.432 C45.994,14.588 46.468,14.732 47.068,14.864 C47.572,14.972 47.908,15.026 48.076,15.026 Z M58.768,14.234 C60.448,14.234 61.894,13.472 63.106,11.948 C64.198,10.568 64.744,9.116 64.744,7.592 C64.744,5.936 64.174,4.646 63.034,3.722 C62.014,2.894 60.694,2.48 59.074,2.48 C58.234,2.48 57.436,3.068 56.68,4.244 C56.104,5.156 55.6,6.314 55.168,7.718 C54.82,8.87 54.646,9.686 54.646,10.166 C54.646,11.378 55,12.35 55.708,13.082 C56.44,13.85 57.46,14.234 58.768,14.234 Z M58.228,12.362 C57.556,12.362 57.094,12.026 56.842,11.354 C56.698,11.006 56.626,10.616 56.626,10.184 C56.626,9.452 56.914,8.384 57.49,6.98 C58.174,5.3 58.9,4.43 59.668,4.37 C61.108,4.25 61.828,4.922 61.828,6.386 C61.828,6.746 61.783,7.16 61.693,7.628 C61.603,8.096 61.558,8.324 61.558,8.312 C61.558,8.924 61.27,9.698 60.694,10.634 C59.974,11.786 59.152,12.362 58.228,12.362 Z M76.552,15.728 C77.26,15.728 77.614,15.302 77.614,14.45 C77.614,14.282 77.596,14.036 77.56,13.712 C77.524,13.388 77.506,13.166 77.506,13.046 C77.506,12.914 77.518,12.812 77.542,12.74 C77.65,12.272 78.058,11.258 78.766,9.698 C79.522,8.03 79.954,7.016 80.062,6.656 C80.086,6.584 80.098,6.506 80.098,6.422 C80.098,6.062 79.99,5.708 79.774,5.36 C79.51,4.964 79.192,4.766 78.82,4.766 C78.28,4.766 76.876,5.558 74.608,7.142 C73.36,8.042 72.118,8.936 70.882,9.824 C70.822,9.248 70.762,8.678 70.702,8.114 C70.582,7.022 70.402,6.164 70.162,5.54 C69.814,4.652 69.346,4.208 68.758,4.208 C68.35,4.208 67.522,5.594 66.274,8.366 C65.074,10.982 64.474,12.446 64.474,12.758 C64.474,13.13 64.498,13.37 64.546,13.478 C64.642,13.754 64.888,13.892 65.284,13.892 C65.416,13.892 65.626,13.715 65.914,13.361 C66.202,13.007 66.376,12.728 66.436,12.524 C66.844,11.216 67.084,10.466 67.156,10.274 C67.468,9.398 67.822,8.66 68.218,8.06 C69.034,10.736 69.814,12.074 70.558,12.074 C71.218,12.074 72.514,11.3 74.446,9.752 C75.574,8.792 76.702,7.832 77.83,6.872 C77.866,6.824 77.896,6.794 77.92,6.782 C77.944,6.782 77.926,6.848 77.866,6.98 L77.866,6.98 L75.652,14.342 C75.628,14.414 75.616,14.492 75.616,14.576 C75.616,14.84 75.715,15.098 75.913,15.35 C76.111,15.602 76.324,15.728 76.552,15.728 Z M81.88,14.324 C82.972,14.324 84.328,13.976 85.948,13.28 C87.652,12.548 88.702,11.81 89.098,11.066 C88.858,10.646 88.6,10.376 88.324,10.256 C88.168,10.196 87.916,10.166 87.568,10.166 C87.46,10.166 86.827,10.304 85.669,10.58 C84.511,10.856 83.872,10.994 83.752,10.994 C83.68,10.994 83.491,11.012 83.185,11.048 C82.879,11.084 82.654,11.102 82.51,11.102 C82.354,11.102 82.246,11.084 82.186,11.048 C82.114,10.052 82.444,9.368 83.176,8.996 C83.656,8.732 84.694,8.504 86.29,8.312 C88.33,8.06 89.938,7.784 91.114,7.484 C91.27,7.364 91.348,7.244 91.348,7.124 C91.348,6.92 91.165,6.749 90.799,6.611 C90.433,6.473 90.076,6.404 89.728,6.404 C89.284,6.404 88.234,6.458 86.578,6.566 C84.994,6.674 83.914,6.722 83.338,6.71 L83.338,6.71 L83.338,6.224 C83.338,5.504 83.764,5.018 84.616,4.766 C85.168,4.61 85.966,4.55 87.01,4.586 C87.91,4.622 88.372,4.622 88.396,4.586 L88.396,4.586 L88.558,3.992 C88.126,3.476 87.646,3.134 87.118,2.966 C86.758,2.858 86.218,2.804 85.498,2.804 C83.914,2.804 82.969,2.942 82.663,3.218 C82.357,3.494 81.79,4.82 80.962,7.196 C80.098,9.704 79.666,11.432 79.666,12.38 C79.666,13.1 79.864,13.616 80.26,13.928 C80.596,14.192 81.136,14.324 81.88,14.324 Z M92.122,14.594 C92.866,14.594 93.292,14.468 93.4,14.216 L93.4,14.216 L93.4,12.218 C93.4,11.762 93.616,10.574 94.048,8.654 C94.432,6.89 94.654,5.948 94.714,5.828 C94.81,5.6 94.867,5.408 94.885,5.252 C94.903,5.096 94.912,4.934 94.912,4.766 C95.488,4.61 96.262,4.526 97.234,4.514 C98.494,4.502 99.364,4.466 99.844,4.406 C100.072,4.382 100.45,4.238 100.978,3.974 C101.65,3.65 101.986,3.35 101.986,3.074 C101.986,3.002 101.962,2.936 101.914,2.876 C101.65,2.516 101.44,2.288 101.284,2.192 C100.972,2.024 100.45,1.964 99.718,2.012 L99.718,2.012 L91.114,3.308 C91.042,3.308 90.925,3.296 90.763,3.272 C90.601,3.248 90.496,3.236 90.448,3.236 C90.088,3.236 89.836,3.284 89.692,3.38 C89.476,3.512 89.368,3.782 89.368,4.19 C89.368,5.258 89.56,5.75 89.944,5.666 L89.944,5.666 L92.536,5.054 C92.668,5.15 92.734,5.258 92.734,5.378 C92.734,5.75 92.638,6.506 92.446,7.646 C92.266,8.714 92.14,9.362 92.068,9.59 C91.948,9.974 91.804,10.55 91.636,11.318 C91.432,12.242 91.33,12.902 91.33,13.298 C91.33,14.162 91.594,14.594 92.122,14.594 Z M99.232,15.71 C99.856,15.71 100.21,15.224 100.294,14.252 C100.33,13.364 100.366,12.47 100.402,11.57 C100.558,10.61 101.032,10.13 101.824,10.13 C101.86,10.13 102.049,10.139 102.391,10.157 C102.733,10.175 103.024,10.184 103.264,10.184 C103.612,10.184 103.882,10.166 104.074,10.13 C104.026,10.79 103.93,11.648 103.786,12.704 C103.642,13.652 103.57,14.156 103.57,14.216 C103.57,14.492 103.672,14.768 103.876,15.044 C104.128,15.404 104.458,15.584 104.866,15.584 C105.046,15.584 105.262,15.536 105.514,15.44 C105.862,15.296 106.036,15.122 106.036,14.918 L106.036,14.918 L106.036,11.408 C106.036,11.156 106.234,10.604 106.63,9.752 L106.63,9.752 L109.69,9.752 C109.99,9.752 110.368,9.65 110.824,9.446 C111.436,9.182 111.742,8.852 111.742,8.456 C111.742,8.144 111.04,7.916 109.636,7.772 C108.772,7.7 107.902,7.628 107.026,7.556 C107.098,7.34 107.272,6.932 107.548,6.332 C107.788,5.84 107.908,5.534 107.908,5.414 C107.908,5.102 107.812,4.832 107.62,4.604 C107.404,4.328 107.104,4.19 106.72,4.19 C106.216,4.19 105.904,4.49 105.784,5.09 C105.592,6.026 105.436,6.578 105.316,6.746 C104.944,7.346 104.194,7.646 103.066,7.646 C102.346,7.646 101.89,7.616 101.698,7.556 C101.77,6.824 101.806,6.362 101.806,6.17 C101.806,5.114 101.428,4.586 100.672,4.586 C100.468,4.586 100.24,4.622 99.988,4.694 C98.908,7.154 98.368,10.016 98.368,13.28 C98.368,13.28 98.362,13.364 98.35,13.532 L98.34,13.696 C98.3346667,13.8026667 98.332,13.904 98.332,14 C98.332,15.14 98.632,15.71 99.232,15.71 Z M111.382,14 C111.574,14 111.85,13.874 112.21,13.622 C112.378,12.626 112.696,11.444 113.164,10.076 C113.584,8.9 113.998,7.718 114.406,6.53 C114.814,5.186 114.988,3.944 114.928,2.804 C114.76,2.66 114.586,2.588 114.406,2.588 C114.178,2.588 113.95,2.678 113.722,2.858 C113.398,3.818 112.624,5.768 111.4,8.708 C110.752,10.244 110.428,11.552 110.428,12.632 C110.428,13.544 110.746,14 111.382,14 Z M116.368,14 C116.548,14 116.8,13.889 117.124,13.667 C117.448,13.445 117.64,13.238 117.7,13.046 C118.396,10.502 119.038,8.618 119.626,7.394 C119.83,7.994 120.04,8.594 120.256,9.194 C120.7,10.394 121.132,11.348 121.552,12.056 C122.14,13.052 122.692,13.55 123.208,13.55 C123.808,13.55 124.606,12.746 125.602,11.138 C126.394,9.842 127.18,8.282 127.96,6.458 C128.68,4.778 129.04,3.74 129.04,3.344 C129.04,3.068 129.028,2.9 129.004,2.84 C128.932,2.6 128.752,2.48 128.464,2.48 C127.804,2.48 127.108,3.152 126.376,4.496 C126.208,4.82 125.866,5.606 125.35,6.854 C124.522,8.822 123.826,10.292 123.262,11.264 C122.998,11.012 122.8,10.832 122.668,10.724 C122.38,7.76 121.714,5.432 120.67,3.74 C120.598,3.764 120.346,3.8 119.914,3.848 C119.614,3.896 119.428,3.956 119.356,4.028 C118.804,4.604 118.216,5.468 117.592,6.62 C116.548,8.516 115.81,9.998 115.378,11.066 C115.21,11.498 115.126,11.96 115.126,12.452 C115.126,12.8 115.21,13.124 115.378,13.424 C115.606,13.808 115.936,14 116.368,14 Z M131.362,14.018 C132.43,14.018 133.618,13.856 134.926,13.532 C135.982,13.268 136.948,12.944 137.824,12.56 C138.628,12.2 139.018,11.954 138.994,11.822 C138.754,10.454 138.376,9.56 137.86,9.14 C137.428,8.78 136.624,8.6 135.448,8.6 L135.448,8.6 L135.020686,8.60085207 C134.286485,8.60397633 133.822923,8.61569231 133.63,8.636 C132.466,8.756 131.884,9.056 131.884,9.536 C131.884,9.812 132.241,10.079 132.955,10.337 C133.669,10.595 134.026,10.796 134.026,10.94 C134.026,11.384 133.48,11.606 132.388,11.606 C130.9,11.606 130.156,11.048 130.156,9.932 C130.156,9.284 130.837,8.255 132.199,6.845 C133.561,5.435 134.536,4.73 135.124,4.73 C135.28,4.73 135.442,4.868 135.61,5.144 C135.862,5.54 136.036,5.786 136.132,5.882 C136.396,6.158 136.726,6.296 137.122,6.296 C137.53,6.296 137.86,6.056 138.112,5.576 C138.328,5.168 138.436,4.736 138.436,4.28 C138.436,3.776 138.142,3.362 137.554,3.038 C137.05,2.762 136.522,2.624 135.97,2.624 C135.07,2.624 133.978,3.098 132.694,4.046 C131.458,4.958 130.396,6.038 129.508,7.286 C128.548,8.606 128.068,9.74 128.068,10.688 C128.068,12.908 129.166,14.018 131.362,14.018 Z" id="Typesomething" fill="#FFFFFF" fill-rule="nonzero"></path>
  </g>
</svg>